<?xml version="1.0" encoding="UTF-8" ?>
<!DOCTYPE svg PUBLIC "-//W3C//DTD SVG 1.1//EN" "http://www.w3.org/Graphics/SVG/1.1/DTD/svg11.dtd">
<svg class="logo" width="427pt" height="427pt" viewBox="0 0 427 427" version="1.1" xmlns="http://www.w3.org/2000/svg">
<g id="#3a5897ff">
<path opacity="1.00" d=" M 183.75 25.79 C 199.39 12.85 220.15 8.26 240.01 7.52 C 263.26 7.48 286.50 7.50 309.75 7.51 C 309.74 31.59 309.75 55.67 309.75 79.75 C 294.48 79.77 279.21 79.71 263.95 79.77 C 254.02 80.00 244.12 88.71 244.72 99.04 C 244.78 113.85 244.73 128.66 244.75 143.47 C 266.34 144.07 287.95 143.60 309.55 143.76 C 308.09 167.11 305.15 190.36 301.71 213.50 C 282.64 213.50 263.57 213.50 244.50 213.50 C 244.50 267.67 244.50 321.84 244.50 376.01 C 244.58 390.50 244.45 405.00 244.25 419.49 C 215.84 419.52 187.43 419.48 159.02 419.51 C 158.91 410.35 159.20 401.18 158.75 392.03 C 158.75 332.51 158.76 273.00 158.74 213.49 C 144.91 213.51 131.09 213.49 117.26 213.50 C 117.24 190.34 117.26 167.17 117.25 144.01 C 131.08 143.70 144.93 144.41 158.76 143.69 C 158.73 126.14 158.77 108.58 158.74 91.03 C 159.11 83.34 158.73 75.58 160.25 67.98 C 163.04 51.84 170.86 36.20 183.75 25.79 Z" />
</g>
</svg>
