<?xml version="1.0" encoding="UTF-8" ?>
<!DOCTYPE svg PUBLIC "-//W3C//DTD SVG 1.1//EN" "http://www.w3.org/Graphics/SVG/1.1/DTD/svg11.dtd">
<svg class="logo" width="200pt" height="200pt" viewBox="0 0 200 200" version="1.1" xmlns="http://www.w3.org/2000/svg">
<g id="#000000ff">
<path  opacity="1.00" d=" M 77.43 0.00 L 122.56 0.00 C 136.54 0.51 151.00 -0.24 164.34 4.76 C 178.59 9.73 190.26 21.46 195.23 35.70 C 200.13 49.03 199.49 63.46 200.00 77.42 L 200.00 122.58 C 199.48 137.49 200.17 153.05 194.13 167.05 C 188.24 181.30 175.45 192.36 160.60 196.42 C 148.28 200.03 135.29 199.53 122.59 200.00 L 77.48 200.00 C 62.50 199.48 46.87 200.19 32.82 194.10 C 18.29 188.07 7.15 174.88 3.25 159.68 C -0.11 147.62 0.47 134.97 0.00 122.59 L 0.00 77.40 C 0.51 63.42 -0.24 48.98 4.75 35.65 C 9.79 21.16 21.82 9.33 36.38 4.49 C 49.53 -0.23 63.70 0.51 77.43 0.00 M 61.41 18.58 C 54.75 18.83 48.00 19.48 41.72 21.84 C 32.57 25.05 25.06 32.56 21.85 41.71 C 18.24 51.39 18.64 61.90 18.15 72.06 C 18.23 95.70 17.51 119.36 18.81 142.97 C 19.39 154.05 23.11 165.74 32.19 172.78 C 43.01 181.60 57.74 181.30 70.94 181.74 C 94.27 181.78 117.62 182.28 140.94 181.27 C 151.50 180.82 162.82 178.27 170.40 170.38 C 178.78 162.30 181.08 150.14 181.36 138.97 C 182.23 117.00 181.77 95.00 181.77 73.02 C 181.43 63.90 181.68 54.63 179.38 45.72 C 177.23 36.63 171.27 28.49 163.04 24.00 C 152.33 18.18 139.80 18.68 128.00 18.16 C 105.80 18.17 83.59 17.65 61.41 18.58 Z" />
<path  opacity="1.00" d=" M 149.25 35.25 C 155.79 32.74 163.78 37.04 165.10 43.95 C 166.92 50.91 161.22 58.49 154.03 58.65 C 147.10 59.27 140.73 52.90 141.26 45.98 C 141.50 41.24 144.75 36.82 149.25 35.25 Z" />
<path  opacity="1.00" d=" M 91.19 49.31 C 103.39 47.24 116.33 49.62 126.87 56.15 C 140.37 64.39 149.81 79.16 151.08 94.99 C 152.25 106.50 149.44 118.39 143.04 128.05 C 134.70 140.92 120.35 149.83 105.01 151.08 C 93.98 152.19 82.59 149.71 73.17 143.84 C 62.27 137.20 53.96 126.39 50.55 114.07 C 46.39 99.78 48.89 83.71 57.25 71.38 C 64.92 59.79 77.49 51.65 91.19 49.31 M 91.45 67.81 C 83.72 69.84 76.84 74.79 72.38 81.41 C 63.79 93.68 65.16 111.67 75.52 122.50 C 85.58 133.86 103.71 136.62 116.69 128.73 C 130.32 121.13 136.90 103.27 131.27 88.67 C 125.91 72.85 107.54 63.15 91.45 67.81 Z" />
</g>
</svg>
