<?xml version="1.0" encoding="UTF-8" ?>
        <!DOCTYPE svg PUBLIC "-//W3C//DTD SVG 1.1//EN" "http://www.w3.org/Graphics/SVG/1.1/DTD/svg11.dtd">
<svg class="logo" width="512pt" height="512pt" viewBox="0 0 512 512" version="1.1" xmlns="http://www.w3.org/2000/svg">
<g id="#007bb6ff">
    <path opacity="1.00"
          d=" M 16.37 28.38 C 28.12 16.87 44.80 11.54 61.02 11.43 C 76.93 11.12 93.46 15.74 105.38 26.64 C 119.50 39.35 125.68 59.60 122.66 78.16 C 120.68 90.63 114.33 102.42 104.71 110.64 C 92.55 121.30 75.98 125.71 60.06 125.43 C 44.15 125.38 27.80 120.01 16.39 108.62 C 5.95 98.50 0.30 84.05 0.00 69.61 L 0.00 66.50 C 0.47 52.35 6.06 38.23 16.37 28.38 Z"/>
    <path opacity="1.00"
          d=" M 363.13 164.57 C 382.66 161.53 402.85 162.44 422.01 167.30 C 439.70 171.94 456.48 180.59 469.85 193.15 C 482.89 205.16 492.72 220.45 499.17 236.91 C 508.48 259.85 511.51 284.77 512.00 309.36 L 512.00 500.63 C 475.42 500.63 438.84 500.63 402.25 500.63 C 402.24 450.74 402.25 400.86 402.25 350.98 C 402.20 337.29 402.53 323.60 401.59 309.94 C 400.12 295.50 397.10 280.57 388.31 268.65 C 381.72 259.43 371.52 253.07 360.45 250.80 C 345.23 247.71 328.59 249.84 315.42 258.36 C 303.78 265.76 295.21 277.35 290.22 290.09 C 286.88 298.65 287.21 307.98 286.74 316.99 C 286.69 378.20 286.74 439.41 286.71 500.63 C 250.13 500.63 213.54 500.63 176.96 500.63 C 177.18 390.59 178.24 280.54 176.95 170.51 C 213.54 170.50 250.13 170.49 286.72 170.51 C 286.68 186.19 286.80 201.87 286.65 217.55 C 294.41 205.40 303.71 194.01 315.23 185.23 C 328.84 174.00 345.83 167.40 363.13 164.57 Z"/>
    <path opacity="1.00"
          d=" M 6.53 170.51 C 43.10 170.50 79.68 170.48 116.25 170.52 C 116.25 280.54 116.23 390.57 116.26 500.60 C 79.68 500.66 43.10 500.63 6.53 500.61 C 6.54 390.58 6.53 280.54 6.53 170.51 Z"/>
</g>
</svg>
