<?xml version="1.0" encoding="utf-8"?>
<!-- Generated by IcoMoon.io -->
<!DOCTYPE svg PUBLIC "-//W3C//DTD SVG 1.1//EN" "http://www.w3.org/Graphics/SVG/1.1/DTD/svg11.dtd">
<svg class="logo" version="1.1" xmlns="http://www.w3.org/2000/svg" xmlns:xlink="http://www.w3.org/1999/xlink" width="42" height="42" viewBox="0 0 42 42">
<path opacity="1.00" d="M21 0c-11.583 0-21 9.417-21 21s9.417 21 21 21 21-9.417 21-21-9.417-21-21-21zM21 39.195c-1.879 0-3.683-0.287-5.389-0.812 0.738-1.206 1.854-3.191 2.264-4.766 0.221-0.853 1.132-4.323 1.132-4.323 0.591 1.132 2.33 2.092 4.167 2.092 5.488 0 9.442-5.045 9.442-11.32 0-6.013-4.905-10.508-11.214-10.508-7.85 0-12.018 5.275-12.018 11.009 0 2.666 1.419 5.988 3.691 7.046 0.345 0.164 0.525 0.090 0.607-0.246 0.057-0.254 0.369-1.485 0.509-2.067 0.041-0.18 0.025-0.345-0.123-0.525-0.755-0.911-1.354-2.592-1.354-4.151 0-4.011 3.035-7.9 8.211-7.9 4.471 0 7.596 3.043 7.596 7.399 0 4.922-2.486 8.334-5.718 8.334-1.788 0-3.125-1.477-2.691-3.289 0.517-2.166 1.509-4.495 1.509-6.054 0-1.395-0.746-2.559-2.305-2.559-1.829 0-3.289 1.887-3.289 4.421 0 1.608 0.541 2.699 0.541 2.699s-1.805 7.621-2.133 9.040c-0.369 1.575-0.221 3.782-0.066 5.217-6.768-2.641-11.566-9.22-11.566-16.931 0-10.049 8.146-18.195 18.195-18.195s18.195 8.146 18.195 18.195c0 10.049-8.146 18.195-18.195 18.195z"></path>
</svg>
