<?xml version="1.0" encoding="UTF-8" ?>
<!DOCTYPE svg PUBLIC "-//W3C//DTD SVG 1.1//EN" "http://www.w3.org/Graphics/SVG/1.1/DTD/svg11.dtd">
<svg class="logo" width="120pt" height="120pt" viewBox="0 0 120 120" version="1.1" xmlns="http://www.w3.org/2000/svg">
    <g id="#1da0f2ff">
        <path opacity="1.00"
              d=" M 71.44 17.50 C 75.69 15.02 80.53 12.51 85.62 13.54 C 92.16 14.75 97.52 18.95 103.18 22.15 C 108.24 20.18 113.26 18.15 118.30 16.13 C 114.38 21.03 110.45 25.92 106.56 30.85 C 111.03 29.33 115.48 27.80 119.95 26.30 C 116.21 30.70 112.31 34.95 108.46 39.25 C 108.29 56.75 102.15 74.31 90.68 87.63 C 82.28 97.51 70.74 104.52 58.33 108.12 C 39.04 113.44 18.08 109.35 0.82 99.72 C 13.66 100.29 26.39 96.96 37.94 91.51 C 28.63 87.98 19.85 82.40 13.96 74.23 C 17.93 73.86 21.91 73.50 25.89 73.21 C 15.51 69.10 7.81 59.64 5.24 48.86 C 9.28 49.90 13.33 50.94 17.36 52.04 C 7.97 43.87 4.84 30.11 8.77 18.44 C 21.85 32.49 39.61 42.31 58.71 44.89 C 58.62 34.56 62.49 23.38 71.44 17.50 Z"/>
    </g>
</svg>
