<?xml version="1.0" encoding="UTF-8" ?>
<!DOCTYPE svg PUBLIC "-//W3C//DTD SVG 1.1//EN" "http://www.w3.org/Graphics/SVG/1.1/DTD/svg11.dtd">
<svg class="logo" width="711pt" height="711pt" viewBox="0 0 711 711" version="1.1" xmlns="http://www.w3.org/2000/svg">
<g id="#ffffffff">
</g>
<g id="#4b4b4bff">
<path class="you" opacity="1.00" d=" M 141.97 26.50 C 154.90 26.72 167.90 26.05 180.79 26.83 C 190.00 61.78 198.24 97.01 207.36 132.00 C 207.93 132.00 209.07 132.01 209.64 132.01 C 218.33 96.90 226.46 61.65 235.00 26.50 C 248.73 26.50 262.46 26.49 276.19 26.51 C 261.37 75.23 246.29 123.87 231.40 172.56 C 230.41 176.01 228.86 179.40 228.98 183.07 C 229.02 218.54 228.99 254.02 229.00 289.50 C 215.50 289.50 202.00 289.50 188.50 289.50 C 188.51 256.00 188.47 222.50 188.52 189.01 C 188.63 184.93 186.91 181.14 185.83 177.29 C 171.39 129.91 156.95 82.52 142.58 35.12 C 141.71 32.33 142.04 29.37 141.97 26.50 Z" />
<path class="you" opacity="1.00" d=" M 316.57 91.63 C 327.44 90.34 338.92 90.37 349.18 94.68 C 360.42 99.22 369.93 108.21 374.69 119.41 C 377.57 125.86 378.88 132.93 379.01 139.97 C 378.99 174.65 379.00 209.33 379.00 244.02 C 378.62 257.11 374.74 270.88 365.07 280.18 C 355.21 290.78 340.14 294.93 326.02 294.53 C 312.43 294.76 298.27 290.22 288.80 280.13 C 279.41 271.01 275.05 257.85 274.50 245.00 C 274.49 210.01 274.52 175.03 274.48 140.04 C 274.19 131.46 276.12 122.78 280.16 115.19 C 287.59 102.03 301.71 93.49 316.57 91.63 M 321.36 125.13 C 315.59 126.51 311.43 132.11 311.50 138.00 C 311.49 173.68 311.52 209.37 311.48 245.05 C 311.40 250.14 313.15 255.61 317.47 258.65 C 321.39 261.17 326.38 261.54 330.86 260.53 C 337.35 259.04 342.36 252.66 342.01 245.95 C 341.95 209.24 342.08 172.53 341.94 135.83 C 340.77 126.60 329.38 122.62 321.36 125.13 Z" />
<path class="you" opacity="1.00" d=" M 409.50 95.50 C 421.50 95.50 433.50 95.50 445.50 95.50 C 445.50 143.00 445.51 190.50 445.49 238.00 C 445.45 243.78 445.26 249.90 448.16 255.12 C 450.75 256.76 453.75 258.14 456.90 257.39 C 465.05 255.45 470.82 248.98 476.49 243.28 C 476.52 194.02 476.49 144.76 476.50 95.50 C 488.50 95.50 500.50 95.50 512.50 95.50 C 512.50 160.17 512.50 224.83 512.50 289.50 C 500.50 289.50 488.50 289.50 476.50 289.50 C 476.48 282.41 476.53 275.33 476.47 268.25 C 467.94 278.56 457.05 287.67 443.94 291.30 C 435.17 293.70 424.53 292.97 417.86 286.15 C 411.12 278.89 409.98 268.49 409.51 259.04 C 409.49 204.53 409.50 150.01 409.50 95.50 Z" />
</g>
<g id="#ed2929ff">
<path class="tube" opacity="1.00" d=" M 231.82 328.14 C 240.55 327.64 249.32 328.50 258.03 327.58 C 269.03 327.32 280.04 327.66 291.04 327.43 C 297.70 326.73 304.39 327.06 311.07 327.00 C 343.38 327.02 375.69 326.97 408.00 327.02 C 422.65 328.25 437.40 326.73 452.05 327.96 C 460.04 328.22 468.05 327.60 476.01 328.37 C 481.92 328.76 487.85 328.19 493.75 328.68 C 500.50 329.42 507.30 328.56 514.04 329.37 C 529.38 329.70 544.70 330.36 560.03 331.00 C 577.32 331.00 594.68 336.20 608.83 346.21 C 631.04 361.14 645.33 387.23 645.58 414.03 C 647.27 438.04 648.78 462.07 649.10 486.14 C 649.95 496.06 649.30 506.05 649.50 516.00 C 649.31 532.80 649.89 549.63 649.21 566.41 C 648.74 590.96 647.41 615.49 645.58 639.99 C 645.53 664.93 633.07 689.16 613.60 704.58 C 506.71 704.41 399.82 704.55 292.93 704.50 C 225.75 704.55 158.56 704.41 91.38 704.58 C 71.97 689.11 59.45 664.95 59.42 639.99 C 58.06 621.38 56.89 602.76 56.30 584.13 C 55.63 577.11 56.38 570.04 55.54 563.03 C 55.43 540.68 55.55 518.33 55.48 495.98 C 56.20 468.96 57.25 441.93 59.41 414.96 C 59.39 403.74 61.87 392.57 66.31 382.28 C 76.48 358.61 98.06 340.22 123.01 333.84 C 134.39 330.62 146.29 330.99 157.99 330.49 C 177.65 329.57 197.33 329.23 217.00 328.48 C 221.94 328.48 226.90 328.68 231.82 328.14 M 101.51 389.00 C 101.50 402.67 101.50 416.33 101.51 430.00 C 115.51 430.00 129.51 430.00 143.51 430.00 C 143.50 505.00 143.51 580.00 143.51 655.00 C 157.00 655.00 170.50 655.00 184.00 655.00 C 184.00 580.00 184.00 505.00 184.00 430.00 C 198.00 430.00 212.00 430.00 226.00 430.00 C 226.00 416.33 226.00 402.67 226.00 389.00 C 184.50 389.00 143.00 389.00 101.51 389.00 M 363.51 389.00 C 363.50 477.67 363.50 566.33 363.51 655.00 C 375.67 655.00 387.83 655.00 400.00 655.00 C 399.99 649.99 400.01 644.97 399.98 639.97 C 404.25 644.81 408.85 649.58 414.66 652.59 C 420.62 655.96 427.52 657.09 434.29 657.28 C 441.52 657.23 449.03 655.48 454.59 650.62 C 463.43 643.16 466.44 631.06 466.99 619.96 C 467.01 580.65 466.99 541.33 467.00 502.01 C 466.95 496.64 465.66 491.39 465.38 486.03 C 464.33 478.11 460.80 470.49 455.37 464.62 C 448.95 457.90 439.28 455.05 430.16 455.63 C 417.95 456.63 407.49 464.47 400.00 473.73 C 400.00 445.48 400.00 417.24 400.00 389.00 C 387.83 389.00 375.67 389.00 363.51 389.00 M 514.60 464.58 C 504.45 472.57 497.71 484.56 495.62 497.25 C 495.41 502.18 494.59 507.06 494.50 511.99 C 494.51 540.65 494.51 569.30 494.50 597.96 C 494.23 611.30 496.30 625.15 503.14 636.81 C 509.91 648.46 521.86 657.00 535.25 659.09 C 549.53 661.35 564.95 659.90 577.68 652.63 C 587.39 646.73 594.05 636.76 597.14 625.94 C 601.41 611.86 600.40 597.01 600.49 582.51 C 588.16 582.50 575.83 582.50 563.51 582.51 C 562.98 594.15 564.94 606.15 561.57 617.49 C 560.57 621.69 556.98 624.84 552.77 625.61 C 547.10 626.55 540.17 626.66 536.12 621.84 C 532.43 616.72 531.91 610.18 531.51 604.09 C 531.46 590.22 531.51 576.36 531.50 562.50 C 554.50 562.49 577.49 562.50 600.49 562.49 C 600.51 546.32 600.47 530.15 600.51 513.99 C 600.61 507.73 599.80 501.50 598.84 495.33 C 598.14 483.56 592.41 472.17 583.61 464.36 C 576.33 457.78 566.62 454.54 556.98 453.59 C 542.23 451.77 526.23 454.92 514.60 464.58 M 225.51 458.00 C 225.51 513.67 225.49 569.34 225.52 625.02 C 225.99 634.58 227.27 645.44 234.86 652.20 C 240.93 657.84 250.03 658.34 257.79 656.91 C 271.82 653.68 283.49 644.12 292.49 633.23 C 292.52 640.48 292.50 647.74 292.51 655.00 C 304.50 655.00 316.50 655.00 328.49 655.00 C 328.50 589.33 328.50 523.67 328.49 458.00 C 316.50 458.00 304.50 458.00 292.51 458.00 C 292.48 507.07 292.55 556.14 292.47 605.21 C 288.37 610.49 283.17 614.90 277.31 618.11 C 273.94 619.95 269.76 620.66 266.25 618.78 C 263.07 616.71 261.37 612.75 261.47 609.03 C 261.52 558.69 261.48 508.34 261.49 458.00 C 249.50 458.00 237.50 458.00 225.51 458.00 Z" />
<path class="tube" opacity="1.00" d=" M 399.99 497.24 C 403.84 493.00 408.99 489.04 415.04 489.43 C 418.89 489.22 422.97 490.45 425.59 493.39 C 428.56 497.25 429.94 502.16 430.00 506.99 C 430.00 542.33 429.99 577.67 430.01 613.01 C 430.00 618.39 427.65 624.65 422.04 626.34 C 413.86 628.84 405.30 624.25 400.11 618.10 C 399.85 577.82 400.09 537.52 399.99 497.24 Z" />
</g>
<g id="#ec2828ff">
<path class="tube" opacity="1.00" d=" M 543.34 490.26 C 548.45 489.54 554.50 489.70 558.37 493.62 C 562.32 497.70 562.94 503.68 563.42 509.06 C 563.64 515.87 563.43 522.68 563.50 529.50 C 552.83 529.51 542.17 529.50 531.50 529.50 C 531.92 519.38 530.24 508.94 533.34 499.12 C 534.63 494.54 538.62 490.93 543.34 490.26 Z" />
</g>
</svg>
